<?xml version="1.0" encoding="utf-8"?>
<!-- Generator: Adobe Illustrator 24.1.2, SVG Export Plug-In . SVG Version: 6.00 Build 0)  -->
<svg version="1.1" xmlns="http://www.w3.org/2000/svg" xmlns:xlink="http://www.w3.org/1999/xlink" x="0px" y="0px"
	 viewBox="0 0 792 612" style="enable-background:new 0 0 792 612;" xml:space="preserve">
<style type="text/css">
	.st0{fill:#FFFFFF;stroke:#231F20;stroke-width:2.1299;stroke-linecap:round;stroke-linejoin:round;stroke-miterlimit:10;}
	.st1{fill:#FFFFFF;stroke:#231F20;stroke-width:2;stroke-linecap:round;stroke-linejoin:round;stroke-miterlimit:10;}
	.st2{fill:#FFFFFF;stroke:#231F20;stroke-width:2;stroke-miterlimit:10;}
	.st3{fill:none;stroke:#231F20;stroke-width:3;stroke-linecap:round;stroke-linejoin:round;stroke-miterlimit:10;}
	.st4{fill:none;stroke:#231F20;stroke-width:2.705;stroke-linecap:round;stroke-linejoin:round;stroke-miterlimit:10;}
	.st5{fill:none;stroke:#231F20;stroke-width:1.9774;stroke-linecap:round;stroke-linejoin:round;stroke-miterlimit:10;}
	.st6{fill:#231F20;}
	.st7{fill:none;stroke:#231F20;stroke-linecap:round;stroke-linejoin:round;stroke-miterlimit:10;}
	.st8{fill:none;stroke:#F9A41A;stroke-width:5;stroke-linecap:round;stroke-linejoin:round;stroke-miterlimit:10;}
	.st9{clip-path:url(#SVGID_2_);}
	.st10{clip-path:url(#SVGID_2_);fill:none;}
	.st11{clip-path:url(#SVGID_4_);}
	.st12{clip-path:url(#SVGID_4_);fill:none;}
	.st13{clip-path:url(#SVGID_6_);}
	.st14{clip-path:url(#SVGID_6_);fill:none;}
	.st15{clip-path:url(#SVGID_8_);}
	.st16{clip-path:url(#SVGID_8_);fill:none;}
	.st17{fill:none;}
	.st18{opacity:0.3;}
	.st19{fill:#F9A41A;}
	.st20{fill:#282827;}
	.st21{fill:#29B473;}
	.st22{fill:none;stroke:#231F20;stroke-width:7;stroke-linecap:round;stroke-linejoin:round;stroke-miterlimit:10;}
	.st23{fill:#FFFFFF;}
	.st24{fill:none;stroke:#282827;stroke-linecap:round;stroke-linejoin:round;stroke-miterlimit:10;}
	.st25{clip-path:url(#SVGID_10_);}
	.st26{font-family:'OpenSans-ExtraBold';}
	.st27{font-size:35.4722px;}
	.st28{clip-path:url(#SVGID_12_);}
	.st29{fill:none;stroke:#F9A41A;stroke-width:8.868;stroke-linecap:round;stroke-linejoin:round;stroke-miterlimit:10;}
	.st30{clip-path:url(#SVGID_14_);}
	.st31{fill:#00CC66;}
	.st32{fill:#2651DB;}
</style>
<g id="Layer_1">
	<g>
		<path class="st19" d="M423.76,329.77h-63.53c-2.45,0-4.43-1.98-4.43-4.43s1.98-4.43,4.43-4.43h63.53c2.45,0,4.43,1.98,4.43,4.43
			S426.21,329.77,423.76,329.77z"/>
		<path class="st19" d="M417.35,346.34h-50.7c-2.45,0-4.43-1.98-4.43-4.43s1.98-4.43,4.43-4.43h50.7c2.45,0,4.43,1.98,4.43,4.43
			S419.8,346.34,417.35,346.34z"/>
		<path class="st19" d="M406.16,362.92h-28.32c-2.45,0-4.43-1.98-4.43-4.43s1.98-4.43,4.43-4.43h28.32c2.45,0,4.43,1.98,4.43,4.43
			S408.61,362.92,406.16,362.92z"/>
		<rect x="255.93" y="402.67" class="st17" width="280.15" height="35.4"/>
		<text transform="matrix(1 0 0 1 307.469 429.6317)"><tspan x="0" y="0" class="st6 st26 st27">A</tspan><tspan x="26.46" y="0" class="st6 st26 st27">cT</tspan><tspan x="67.96" y="0" class="st19 st26 st27">in</tspan><tspan x="104.68" y="0" class="st6 st26 st27">Site</tspan></text>
		<g>
			<defs>
				<path id="SVGID_11_" d="M442.47,207.96c-12.93-17.72-30.2-26.61-50.47-26.01c-20.27-0.6-37.54,8.29-50.47,26.01
					c-15.49,21.23-16.32,44.36-4.2,67.73c5.07,9.79,10.71,19.28,15.82,29.04c1.66,3.16,3.56,4.51,7.22,4.48
					c10.54-0.09,21.09-0.08,31.63-0.08c10.54,0.01,21.09,0,31.63,0.08c3.66,0.03,5.56-1.32,7.22-4.48
					c5.11-9.77,10.75-19.26,15.82-29.04C458.78,252.32,457.96,229.19,442.47,207.96z"/>
			</defs>
			<clipPath id="SVGID_2_">
				<use xlink:href="#SVGID_11_"  style="overflow:visible;"/>
			</clipPath>
			<g class="st9">
				<g>
					<path class="st6" d="M393.41,361.4c-3.06-2.75-3.21-4.74-0.43-7.95c14.61-16.84,25.03-36.3,29.91-59.03
						c1.67-7.77,2.85-15.78,3.28-23.74c0.53-9.92,0.61-19.96-0.12-29.85c-1.17-15.86-14.24-29.94-28.59-32.47
						c-17.86-3.16-33.81,8.29-39.06,25.2c-1.16,3.74-1.76,7.8-1.99,11.76c-0.43,7.29-0.08,14.64-0.62,21.91
						c-0.8,10.81-4.86,20.23-11.4,28.34c-3.44,4.27-6.93,8.5-10.48,12.66c-1.66,1.94-3.72,2.02-5.28,0.48
						c-1.5-1.48-1.57-3.83-0.14-5.85c0.4-0.57,0.89-1.07,1.32-1.61c4.16-5.28,8.61-10.32,12.39-15.91
						c4.42-6.52,6.35-14.19,6.59-22.33c0.23-7.63-0.06-15.31,0.66-22.87c1.95-20.37,17.68-37.27,36.19-39.99
						c21.92-3.22,42.59,12.48,47.36,36.67c0.48,2.42,0.81,4.93,0.83,7.4c0.12,12.77,0.39,25.55-1.27,38.26
						c-3.21,24.65-11.9,46.69-26.03,66.1c-3.26,4.48-6.99,8.57-10.5,12.83C395.17,361.41,394.29,361.41,393.41,361.4z"/>
					<path class="st6" d="M372.35,361.25c-3-2.75-3.06-4.71-0.35-8c7.85-9.52,16.27-18.51,22.62-29.42
						c7.9-13.56,13.07-28.24,15.12-44.23c1.51-11.83,1.56-23.7,1.05-35.59c-0.37-8.72-7.7-17.4-15.58-18.71
						c-10.89-1.81-19.74,4.33-22.7,15.96c-0.58,2.28-0.63,4.75-0.74,7.14c-0.34,8.02-0.07,16.11-0.99,24.04
						c-1.59,13.68-7.28,25.44-15.68,35.63c-3.39,4.11-6.79,8.21-10.21,12.28c-2.07,2.46-4.21,2.88-5.89,1.23
						c-1.78-1.75-1.61-4.13,0.54-6.75c3.77-4.6,7.63-9.11,11.32-13.78c9.1-11.51,13.47-24.97,13.48-40.19
						c0.01-5.7-0.04-11.43,0.35-17.11c1.01-14.99,12.47-26.67,26.26-27.03c13.44-0.35,26.1,11.02,27.11,25.73
						c2.42,35.37-3.04,68.59-24.54,96.69c-5.41,7.07-11.26,13.73-16.92,20.56c-0.48,0.58-1.07,1.05-1.61,1.56
						C374.11,361.26,373.23,361.26,372.35,361.25z"/>
					<path class="st6" d="M402.76,261.01c0.26,15.8-2.7,31.85-9.39,47.02c-4.08,9.25-9.39,17.57-15.67,25.15
						c-4.73,5.7-9.49,11.37-14.28,17.02c-0.73,0.86-1.59,1.78-2.56,2.15c-1.55,0.6-3.07,0.15-4.04-1.48
						c-1.07-1.78-0.85-3.55,0.39-5.09c2.58-3.18,5.32-6.21,7.83-9.45c5.49-7.08,11.34-13.91,16.21-21.49
						c7.27-11.28,11.76-24.08,13.03-37.86c0.93-10.05,0.86-20.2,1.14-30.32c0.08-2.83-1.66-4.66-4.02-4.65
						c-2.36,0.01-3.91,1.77-3.99,4.69c-0.18,6.99-0.17,13.99-0.51,20.97c-0.71,14.58-4.93,27.97-12.14,40.18
						c-6.65,11.26-15.64,20.36-23.69,30.33c-1.67,2.07-3.85,2.07-5.42,0.38c-1.57-1.69-1.56-3.81,0.23-6.01
						c5.56-6.83,11.27-13.51,16.75-20.41c11.69-14.73,17.1-32.06,17.31-51.48c0.05-4.74,0.02-9.49,0.1-14.23
						c0.12-7.18,5.04-12.54,11.4-12.52c6.36,0.02,11.31,5.46,11.37,12.58C402.87,251,402.79,255.5,402.76,261.01z"/>
					<path class="st6" d="M449.09,251.55c0.21-20.22-3.18-38.73-19.13-54.12c-8.22-7.94-19.17-12.8-30.34-14.9
						c-13.36-2.51-28.09,2.09-39,9.9c-16.68,11.94-25.53,28.98-27.07,50.72c-0.01,1.12-0.1,2.26,0,3.37
						c0.01,7.93-0.45,16.68-4.32,23.72c-3.93,7.15-9.59,13.54-15.14,19.46c-3.12,3.33,1.88,8.35,5.02,5.02
						c6.09-6.49,12.47-13.63,16.61-21.57c4.22-8.1,4.94-17.84,4.93-26.86c0.17-1.13,0.19-2.3,0.31-3.44
						c0.22-2.23,0.24-4.51,0.69-6.69c5.31-25.66,25.33-46.74,52.99-45.37c17.7,0.88,32.74,11.53,40.82,27.08
						c9.23,17.76,7.23,38.48,5.68,57.71c-1.63,20.21-7.48,40.12-16.82,58.12c-2.1,4.05,4.02,7.64,6.13,3.58
						c11.88-22.89,16.66-48.29,18.2-73.83C448.88,259.43,449.05,255.46,449.09,251.55z"/>
				</g>
			</g>
		</g>
	</g>
</g>
<g id="Layer_2">
</g>
</svg>
