<?xml version="1.0" encoding="utf-8"?>
<!-- Generator: Adobe Illustrator 24.3.0, SVG Export Plug-In . SVG Version: 6.00 Build 0)  -->
<svg version="1.1" id="Layer_1" xmlns="http://www.w3.org/2000/svg" xmlns:xlink="http://www.w3.org/1999/xlink" x="0px" y="0px"
	 viewBox="0 0 527.2 181.01" style="enable-background:new 0 0 527.2 181.01;" xml:space="preserve">
<style type="text/css">
	.st0{fill:#231F20;}
	.st1{fill:#F9A41A;}
	.st2{clip-path:url(#SVGID_2_);}
	.st3{clip-path:url(#SVGID_4_);}
</style>
<g>
	<g>
		<path class="st0" d="M184.2,118.31l-2.71-10.32h-17.89l-2.79,10.32h-16.34l17.96-55.28h19.85l18.19,55.28H184.2z M178.4,95.79
			l-2.37-9.04c-0.55-2.01-1.23-4.61-2.01-7.79c-0.79-3.19-1.31-5.47-1.56-6.85c-0.23,1.28-0.67,3.39-1.34,6.32
			c-0.66,2.94-2.14,8.72-4.42,17.36H178.4z"/>
		<path class="st0" d="M226.53,119.07c-6.98,0-12.27-1.88-15.87-5.65c-3.6-3.76-5.4-9.17-5.4-16.23c0-7.08,1.94-12.57,5.84-16.46
			c3.89-3.89,9.43-5.84,16.61-5.84c4.94,0,9.6,1.08,13.97,3.24l-4.33,10.88c-1.78-0.78-3.43-1.4-4.93-1.86
			c-1.51-0.46-3.08-0.7-4.71-0.7c-2.38,0-4.23,0.93-5.54,2.79c-1.31,1.86-1.96,4.48-1.96,7.87c0,6.83,2.52,10.24,7.57,10.24
			c4.32,0,8.46-1.25,12.43-3.77v11.71C236.41,117.81,231.85,119.07,226.53,119.07z"/>
		<path class="st0" d="M275.37,118.31H260.5V75.42h-13.44V63.26h41.72v12.16h-13.41V118.31z"/>
		<path class="st1" d="M297.02,65.03c0-2.21,0.62-3.85,1.85-4.93c1.23-1.08,3.21-1.62,5.95-1.62c2.73,0,4.73,0.55,5.99,1.66
			c1.25,1.1,1.88,2.74,1.88,4.89c0,4.32-2.62,6.48-7.87,6.48C299.62,71.5,297.02,69.34,297.02,65.03z M312.12,118.31H297.4V75.65
			h14.72V118.31z"/>
		<path class="st1" d="M350.87,118.31V95.04c0-2.84-0.41-4.98-1.23-6.42s-2.13-2.17-3.93-2.17c-2.49,0-4.28,0.99-5.38,2.97
			c-1.11,1.99-1.66,5.39-1.66,10.21v18.68h-14.72V75.65h11.11l1.85,5.27h0.87c1.25-2.01,2.99-3.51,5.21-4.52
			c2.22-1,4.78-1.51,7.66-1.51c4.72,0,8.39,1.37,11.02,4.11c2.62,2.73,3.93,6.59,3.93,11.56v27.75H350.87z"/>
		<path class="st0" d="M414.02,101.59c0,3.41-0.87,6.45-2.6,9.09c-1.73,2.65-4.23,4.71-7.49,6.18c-3.26,1.47-7.09,2.2-11.49,2.2
			c-3.66,0-6.74-0.26-9.23-0.77c-2.49-0.51-5.07-1.41-7.76-2.69v-13.26c2.84,1.46,5.79,2.59,8.85,3.41
			c3.06,0.82,5.87,1.22,8.44,1.22c2.21,0,3.83-0.38,4.86-1.15c1.03-0.76,1.54-1.75,1.54-2.96c0-0.75-0.21-1.41-0.62-1.98
			c-0.41-0.56-1.08-1.14-2-1.71c-0.92-0.58-3.36-1.76-7.32-3.54c-3.59-1.63-6.28-3.21-8.08-4.75c-1.8-1.53-3.13-3.29-3.99-5.27
			c-0.87-1.98-1.3-4.33-1.3-7.04c0-5.07,1.85-9.02,5.54-11.86s8.76-4.26,15.21-4.26c5.7,0,11.51,1.32,17.44,3.96l-4.56,11.48
			c-5.15-2.36-9.59-3.54-13.33-3.54c-1.93,0-3.34,0.34-4.22,1.02s-1.32,1.52-1.32,2.52c0,1.08,0.56,2.05,1.68,2.9
			s4.15,2.41,9.1,4.67c4.74,2.13,8.04,4.42,9.88,6.87C413.1,94.79,414.02,97.88,414.02,101.59z"/>
		<path class="st0" d="M422.9,65.03c0-2.21,0.62-3.85,1.85-4.93c1.23-1.08,3.21-1.62,5.95-1.62c2.73,0,4.73,0.55,5.99,1.66
			c1.25,1.1,1.88,2.74,1.88,4.89c0,4.32-2.62,6.48-7.87,6.48C425.5,71.5,422.9,69.34,422.9,65.03z M438.01,118.31h-14.72V75.65
			h14.72V118.31z"/>
		<path class="st0" d="M470.73,107.43c1.98,0,4.35-0.49,7.12-1.47v10.73c-1.98,0.85-3.87,1.46-5.67,1.83
			c-1.8,0.36-3.9,0.55-6.31,0.55c-4.95,0-8.51-1.21-10.69-3.63c-2.18-2.42-3.28-6.14-3.28-11.17V86.68h-5.16v-5.99l6.55-4.63
			l3.8-8.96h9.64v8.55h10.47v11.03h-10.47v16.61C466.74,106.05,468.06,107.43,470.73,107.43z"/>
		<path class="st0" d="M507.44,119.07c-7.1,0-12.62-1.89-16.55-5.67c-3.93-3.78-5.89-9.16-5.89-16.13c0-7.21,1.82-12.73,5.46-16.59
			c3.64-3.85,8.84-5.78,15.59-5.78c6.43,0,11.39,1.68,14.89,5.03c3.5,3.35,5.25,8.18,5.25,14.48v6.55h-26.32
			c0.1,2.38,0.97,4.25,2.62,5.61c1.64,1.36,3.88,2.03,6.72,2.03c2.58,0,4.96-0.24,7.14-0.73c2.17-0.49,4.52-1.32,7.06-2.5v10.58
			c-2.31,1.18-4.69,2-7.16,2.45C513.79,118.84,510.86,119.07,507.44,119.07z M506.57,84.91c-1.73,0-3.18,0.55-4.35,1.64
			c-1.17,1.09-1.85,2.8-2.05,5.14h12.65c-0.05-2.06-0.63-3.7-1.75-4.93C509.96,85.52,508.46,84.91,506.57,84.91z"/>
	</g>
	<g>
		<path class="st1" d="M93.77,147.85H30.24c-2.45,0-4.43-1.98-4.43-4.43s1.98-4.43,4.43-4.43h63.53c2.45,0,4.43,1.98,4.43,4.43
			S96.22,147.85,93.77,147.85z"/>
		<path class="st1" d="M87.35,164.43h-50.7c-2.45,0-4.43-1.98-4.43-4.43s1.98-4.43,4.43-4.43h50.7c2.45,0,4.43,1.98,4.43,4.43
			S89.8,164.43,87.35,164.43z"/>
		<path class="st1" d="M76.16,181.01H47.85c-2.45,0-4.43-1.98-4.43-4.43s1.98-4.43,4.43-4.43h28.32c2.45,0,4.43,1.98,4.43,4.43
			S78.61,181.01,76.16,181.01z"/>
		<g>
			<defs>
				<path id="SVGID_1_" d="M112.47,26.04C99.54,8.32,82.27-0.57,62.01,0.03c-20.27-0.6-37.54,8.29-50.47,26.01
					C-3.95,47.27-4.78,70.4,7.33,93.77c5.07,9.79,10.71,19.28,15.82,29.04c1.66,3.16,3.56,4.51,7.22,4.48
					c10.54-0.09,21.09-0.08,31.63-0.08c10.54,0.01,21.09,0,31.63,0.08c3.66,0.03,5.56-1.32,7.22-4.48
					c5.11-9.77,10.75-19.26,15.82-29.04C128.79,70.4,127.96,47.27,112.47,26.04z"/>
			</defs>
			<clipPath id="SVGID_2_">
				<use xlink:href="#SVGID_1_"  style="overflow:visible;"/>
			</clipPath>
			<g class="st2">
				<g>
					<path class="st0" d="M63.42,179.49c-3.06-2.75-3.21-4.74-0.43-7.95c14.61-16.84,25.03-36.3,29.91-59.03
						c1.67-7.77,2.85-15.78,3.28-23.74c0.53-9.92,0.61-19.96-0.12-29.85c-1.17-15.86-14.24-29.94-28.59-32.47
						c-17.86-3.16-33.81,8.29-39.06,25.2c-1.16,3.74-1.76,7.8-1.99,11.76c-0.43,7.29-0.08,14.64-0.62,21.91
						c-0.8,10.81-4.86,20.23-11.4,28.34c-3.44,4.27-6.93,8.5-10.48,12.66c-1.66,1.94-3.72,2.02-5.28,0.48
						c-1.5-1.48-1.57-3.83-0.14-5.85c0.4-0.57,0.89-1.07,1.32-1.61c4.16-5.28,8.61-10.32,12.39-15.91
						c4.42-6.52,6.35-14.19,6.59-22.33c0.23-7.63-0.06-15.31,0.66-22.87c1.95-20.37,17.68-37.27,36.19-39.99
						c21.92-3.22,42.59,12.48,47.36,36.67c0.48,2.42,0.81,4.93,0.83,7.4c0.12,12.77,0.39,25.55-1.27,38.26
						c-3.21,24.65-11.9,46.69-26.03,66.1c-3.26,4.48-6.99,8.57-10.5,12.83C65.18,179.5,64.3,179.49,63.42,179.49z"/>
					<path class="st0" d="M42.36,179.34c-3-2.75-3.06-4.71-0.35-8c7.85-9.52,16.27-18.51,22.62-29.42
						c7.9-13.56,13.07-28.24,15.12-44.23c1.51-11.83,1.56-23.7,1.05-35.59c-0.37-8.72-7.7-17.4-15.58-18.71
						c-10.89-1.81-19.74,4.33-22.7,15.96c-0.58,2.28-0.63,4.75-0.74,7.14c-0.34,8.02-0.07,16.11-0.99,24.04
						c-1.59,13.68-7.28,25.44-15.68,35.63c-3.39,4.11-6.79,8.21-10.21,12.28c-2.07,2.46-4.21,2.88-5.89,1.23
						c-1.78-1.75-1.61-4.13,0.54-6.75c3.77-4.6,7.63-9.11,11.32-13.78c9.1-11.51,13.47-24.97,13.48-40.19
						c0.01-5.7-0.04-11.43,0.35-17.11c1.01-14.99,12.47-26.67,26.26-27.03c13.44-0.35,26.1,11.02,27.11,25.73
						c2.42,35.37-3.04,68.59-24.54,96.69c-5.41,7.07-11.26,13.73-16.92,20.56c-0.48,0.58-1.07,1.05-1.61,1.56
						C44.11,179.35,43.24,179.35,42.36,179.34z"/>
					<path class="st0" d="M72.77,79.1c0.26,15.8-2.7,31.85-9.39,47.02c-4.08,9.25-9.39,17.57-15.67,25.15
						c-4.73,5.7-9.49,11.37-14.28,17.02c-0.73,0.86-1.59,1.78-2.56,2.15c-1.55,0.6-3.07,0.15-4.04-1.48
						c-1.07-1.78-0.85-3.55,0.39-5.09c2.58-3.18,5.32-6.21,7.83-9.45c5.49-7.08,11.34-13.91,16.21-21.49
						c7.27-11.28,11.76-24.08,13.03-37.86c0.93-10.05,0.86-20.2,1.14-30.32c0.08-2.83-1.66-4.66-4.02-4.65
						c-2.36,0.01-3.91,1.77-3.99,4.69c-0.18,6.99-0.17,13.99-0.51,20.97c-0.71,14.58-4.93,27.97-12.14,40.18
						c-6.65,11.26-15.64,20.36-23.69,30.33c-1.67,2.07-3.85,2.07-5.42,0.38c-1.57-1.69-1.56-3.81,0.23-6.01
						c5.56-6.83,11.27-13.51,16.75-20.41c11.69-14.73,17.1-32.06,17.31-51.48c0.05-4.74,0.02-9.49,0.1-14.23
						c0.12-7.18,5.04-12.54,11.4-12.52c6.36,0.02,11.31,5.46,11.37,12.58C72.88,69.09,72.8,73.59,72.77,79.1z"/>
					<path class="st0" d="M119.1,69.64c0.21-20.22-3.18-38.73-19.13-54.12C91.74,7.58,80.8,2.72,69.63,0.62
						c-13.36-2.51-28.09,2.09-39,9.9C13.95,22.46,5.1,39.51,3.56,61.24c-0.01,1.12-0.1,2.26,0,3.37c0.01,7.93-0.45,16.68-4.32,23.72
						c-3.93,7.15-9.59,13.54-15.14,19.46c-3.12,3.33,1.88,8.35,5.02,5.02c6.09-6.49,12.47-13.63,16.61-21.57
						c4.22-8.1,4.94-17.84,4.93-26.86c0.17-1.13,0.19-2.3,0.31-3.44c0.22-2.23,0.24-4.51,0.69-6.69
						C16.96,28.61,36.98,7.52,64.63,8.89c17.7,0.88,32.74,11.53,40.82,27.08c9.23,17.76,7.23,38.48,5.68,57.71
						c-1.63,20.21-7.48,40.12-16.82,58.12c-2.1,4.05,4.02,7.64,6.13,3.58c11.88-22.89,16.66-48.29,18.2-73.83
						C118.89,77.52,119.06,73.55,119.1,69.64z"/>
				</g>
			</g>
		</g>
	</g>
</g>
</svg>
